<svg role="img" viewBox="0 0 16 16" xmlns="http://www.w3.org/2000/svg" id="Testrail--Streamline-Simple-Icons" height="16" width="16">
  <desc>
    Testrail Streamline Icon: https://streamlinehq.com
  </desc>
  <title>TestRail</title>
  <path d="M4.846666666666666 15.930666666666667 3 14.082666666666665a0.23466666666666663 0.23466666666666663 0 0 1 0 -0.3333333333333333l1.8479999999999999 -1.8466666666666667a0.23466666666666663 0.23466666666666663 0 0 1 0.3333333333333333 0l1.8479999999999999 1.8479999999999999a0.23466666666666663 0.23466666666666663 0 0 1 0 0.3333333333333333l-1.8479999999999999 1.8466666666666667a0.23466666666666663 0.23466666666666663 0 0 1 -0.3333333333333333 0H4.846666666666666zm2.986666666666667 -2.986666666666667 -1.8479999999999999 -1.8479999999999999a0.23466666666666663 0.23466666666666663 0 0 1 0 -0.33199999999999996l1.8479999999999999 -1.8479999999999999a0.23466666666666663 0.23466666666666663 0 0 1 0.3333333333333333 0l1.8466666666666667 1.8479999999999999a0.23466666666666663 0.23466666666666663 0 0 1 0 0.3333333333333333l-1.8466666666666667 1.8466666666666667a0.23466666666666663 0.23466666666666663 0 0 1 -0.33266666666666667 0zm2.986666666666667 -2.986666666666667 -1.8466666666666667 -1.8479999999999999a0.23466666666666663 0.23466666666666663 0 0 1 0 -0.33199999999999996l1.8473333333333333 -1.8479999999999999a0.23466666666666663 0.23466666666666663 0 0 1 0.3333333333333333 0l1.8466666666666667 1.8479999999999999a0.23466666666666663 0.23466666666666663 0 0 1 0 0.33199999999999996l-1.8479999999999999 1.8479999999999999a0.23466666666666663 0.23466666666666663 0 0 1 -0.3333333333333333 0h0.0013333333333333333zm-5.917333333333333 0.056 -1.8479999999999999 -1.8466666666666667a0.23466666666666663 0.23466666666666663 0 0 1 0 -0.33266666666666667l1.8479999999999999 -1.8486666666666667a0.23466666666666663 0.23466666666666663 0 0 1 0.3333333333333333 0l1.8479999999999999 1.8479999999999999a0.23466666666666663 0.23466666666666663 0 0 1 0 0.33199999999999996l-1.8479999999999999 1.8493333333333333a0.23466666666666663 0.23466666666666663 0 0 1 -0.3333333333333333 0v-0.0013333333333333333zm2.986666666666667 -2.986666666666667L6.041333333333332 5.18a0.23466666666666663 0.23466666666666663 0 0 1 0 -0.3333333333333333l1.8479999999999999 -1.8479999999999999a0.23466666666666663 0.23466666666666663 0 0 1 0.3333333333333333 0l1.8466666666666667 1.8479999999999999a0.23466666666666663 0.23466666666666663 0 0 1 0 0.33199999999999996l-1.8466666666666667 1.8479999999999999a0.23466666666666663 0.23466666666666663 0 0 1 -0.33266666666666667 0v-0.0013333333333333333zM4.96 4.1 3.110666666666667 2.2466666666666666a0.23466666666666663 0.23466666666666663 0 0 1 0 -0.3333333333333333L4.96 0.06933333333333333a0.23466666666666663 0.23466666666666663 0 0 1 0.3333333333333333 0l1.8479999999999999 1.8479999999999999a0.23466666666666663 0.23466666666666663 0 0 1 0 0.3333333333333333L5.292 4.094666666666667a0.23466666666666663 0.23466666666666663 0 0 1 -0.3333333333333333 0l0.0013333333333333333 0.004v0.0006666666666666666z" fill="#70c352" stroke-width="0.6667"></path>
</svg>